<svg width="200" height="200" viewBox="0 0 200 200" version="1.1" xmlns="http://www.w3.org/2000/svg" xmlns:xlink="http://www.w3.org/1999/xlink"><title>CV</title><desc>Created with Sketch.</desc><g id="favicons" stroke="none" stroke-width="1" fill="none" fill-rule="evenodd"><g id="CV" fill="#FF4081"><path d="M100,200 C44.771525,200 0,155.228475 0,100 C0,44.771525 44.771525,0 100,0 C155.228475,0 200,44.771525 200,100 C200,155.228475 155.228475,200 100,200 Z M89.712,89.808 L89.712,67.344 C86.6399846,66.0639936 83.7120139,65.120003 80.928,64.512 C78.1439861,63.903997 75.3120144,63.6 72.432,63.6 C67.3759747,63.6 62.544023,64.5439906 57.936,66.432 C53.327977,68.3200094 49.2800174,70.9439832 45.792,74.304 C42.3039826,77.6640168 39.5200104,81.6639768 37.44,86.304 C35.3599896,90.9440232 34.32,96.0479722 34.32,101.616 C34.32,107.184028 35.3759894,112.319976 37.488,117.024 C39.6000106,121.728024 42.3999826,125.791983 45.888,129.216 C49.3760174,132.640017 53.4079771,135.295991 57.984,137.184 C62.5600229,139.072009 67.343975,140.016 72.336,140.016 C74.7680122,140.016 77.2319875,139.776002 79.728,139.296 C82.2240125,138.815998 84.9119856,138.064005 87.792,137.04 L89.712,136.368 L89.712,114.096 C84.911976,119.216026 79.5040301,121.776 73.488,121.776 C70.7359862,121.776 68.1760118,121.264005 65.808,120.24 C63.4399882,119.215995 61.3760088,117.808009 59.616,116.016 C57.8559912,114.223991 56.480005,112.112012 55.488,109.68 C54.495995,107.247988 54,104.592014 54,101.712 C54,98.8959859 54.495995,96.2720122 55.488,93.84 C56.480005,91.4079878 57.8399914,89.3120088 59.568,87.552 C61.2960086,85.7919912 63.359988,84.4000051 65.76,83.376 C68.160012,82.3519949 70.7679859,81.84 73.584,81.84 C79.984032,81.84 85.3599782,84.4959734 89.712,89.808 Z M114.48,65.616 L94.032,65.616 L124.464,138 L139.44,138 L169.968,65.616 L149.52,65.616 L131.952,109.68 L114.48,65.616 Z" id="Combined-Shape"/></g></g></svg>