<svg width="200" height="200" viewBox="0 0 200 200" xmlns="http://www.w3.org/2000/svg"><title>CV</title><path d="M100 200C44.772 200 0 155.228 0 100S44.772 0 100 0s100 44.772 100 100-44.772 100-100 100zM89.712 89.808V67.344c-3.072-1.28-6-2.224-8.784-2.832a39.703 39.703 0 0 0-8.496-.912c-5.056 0-9.888.944-14.496 2.832-4.608 1.888-8.656 4.512-12.144 7.872-3.488 3.36-6.272 7.36-8.352 12s-3.12 9.744-3.12 15.312 1.056 10.704 3.168 15.408c2.112 4.704 4.912 8.768 8.4 12.192 3.488 3.424 7.52 6.08 12.096 7.968a37.268 37.268 0 0 0 14.352 2.832c2.432 0 4.896-.24 7.392-.72 2.496-.48 5.184-1.232 8.064-2.256l1.92-.672v-22.272c-4.8 5.12-10.208 7.68-16.224 7.68-2.752 0-5.312-.512-7.68-1.536-2.368-1.024-4.432-2.432-6.192-4.224-1.76-1.792-3.136-3.904-4.128-6.336-.992-2.432-1.488-5.088-1.488-7.968 0-2.816.496-5.44 1.488-7.872.992-2.432 2.352-4.528 4.08-6.288 1.728-1.76 3.792-3.152 6.192-4.176 2.4-1.024 5.008-1.536 7.824-1.536 6.4 0 11.776 2.656 16.128 7.968zm24.768-24.192H94.032L124.464 138h14.976l30.528-72.384H149.52l-17.568 44.064-17.472-44.064z" fill="#FF4081" fill-rule="evenodd"/></svg>