<svg width="1079" height="1146" viewBox="0 0 1079 1146" xmlns="http://www.w3.org/2000/svg"><title>Jon_Urry</title><g transform="matrix(1 0 0 -1 0 1146)" fill="none" fill-rule="evenodd"><path d="M522.1 1141.9c-2.1-8.6-2.5-9.3-5.6-10-1.7-.4-4.4-1.3-6.2-2-2.8-1.1-3.4-1.1-5.2.5-1.1 1-2.3 2.7-2.6 3.7-1 2.9-2.4 2.2-4.1-2-1.5-3.8-7.6-9.1-12-10.5-2.2-.7-7.9-5.9-12.5-11.4-3.7-4.5-4.7-4-4.1 1.8.6 6.1-1.1 6.7-3.6 1.3-1-2.1-3-6-4.6-8.6-3-5.1-4.6-4.9-4.6.6 0 1.6-.5 2.7-1.3 2.7-1.1 0-1.5-2.9-2-12.2-.4-6.8-1.1-14-1.7-16.1-.6-2.1-.8-5.2-.5-6.8.8-3.7 3.5-3.9 3.5-.1 0 1.5.7 4.6 1.5 7 .9 2.4 1.3 4.7 1 5.2-.2.4.3 1.4 1.1 2.1.9.8 2.5 3.3 3.5 5.6 1.9 4.4 4.9 5.9 4.9 2.4 0-1.1-1.3-4.8-3-8.3-1.6-3.4-3-7-3-8 0-.9-.6-1.8-1.2-2.1-1-.3-.8-1.3.6-3.8 1-1.9 2.6-4.7 3.4-6.4 1.7-3.5 4.2-6.5 5.3-6.5.4 0 .1 2.1-.7 4.7-1.3 4.4-1.3 4.8.6 6.8 1.1 1.2 2 2.8 2 3.6 0 .8.7 2.4 1.5 3.5 1.4 1.9 1.5 1.9 2.1-.3.7-2.4 2.8-3.1 3.9-1.2.4.5 1.8 1.4 3 1.9 1.7.6 2.6 2 3.1 4.4.4 2.4 1.7 4.4 4.1 6.2 4.1 3.1 5.3 2.5 2.4-1.2-3.2-4.1-2.8-7.8 1.3-10.3 4.6-2.9 6.2-2.7 7 .9.4 2.2 1.1 3 2.6 3 2.3 0 8.8-3.8 10.9-6.4 1.6-1.9 3.1-2.1 3.1-.3-.1.6-1.9 2.6-4 4.2-2.1 1.7-3.9 3.5-4 4.1 0 1.4 3.3 4.4 4.8 4.4 1.6 0 1.5 1.1-.3 3.7-1.6 2.3-.8 3.5 3.3 4.7 2.5.8 2.7 2.1.7 5.6-2.7 4.8-2 6 3.5 6 5.3 0 7.4-1.3 11.1-7 .9-1.4 2-2.2 2.4-1.8.4.4.3 1.4-.4 2.2-.6.7-1.5 4.4-1.9 8-1 8.1-2.1 9.5-5.6 7.2-2.5-1.6-2.6-1.6-2.6.4 0 1.1.4 2 .9 2 1.8 0 4.1 3.1 4.1 5.4 0 2.1.5 2.3 4 2.2 4.4-.1 4.9-1 2.5-5.5-1.3-2.6-1.3-3.1.4-5.3 1.7-2.1 1.8-3.3 1-10.3-.7-6.5-.6-8.2.6-9.4 1.3-1.3 1.6-1 3 2.1 1.8 4.5 2.7 5.1 5.9 3.8 2.3-.8 2.8-.7 3.6 1.3.5 1.2 1.9 3.3 3 4.8 3 3.6 5.8 24.5 3.6 26.7-1.3 1.3-1.8 1.3-3.9-.1-2.1-1.4-2.8-3.3-4.8-13.9-1.3-6.8-2.6-12.5-2.9-12.8-.4-.3-.9-1.3-1.3-2.2-.3-1-1.1-1.8-1.7-1.8-1.3 0-1.3 3.7 0 4.5.6.3 1 3.2 1 6.3 0 3.1.9 9.3 1.9 13.7 1.1 4.4 1.7 8.2 1.5 8.5-.3.2-2.7-.8-5.5-2.3-2.7-1.6-5.8-2.7-6.9-2.5-1.9.3-1.9.4.5 3.2 1.4 1.6 2.5 3.3 2.5 3.8 0 1.9-2.1.5-6.3-4.2-2.5-2.7-4.8-5-5.2-5-.4 0-.4 3-.1 6.8.8 8.3-.7 11.7-2.3 5.1zm-15.7-21.4c.3-.8.2-3.5-.3-6-.6-3.4-.5-5 .6-6.5 1.1-1.6 1.4-4.2 1.1-9.6-.3-6.3-.7-7.8-2.8-9.9l-2.5-2.5-4.3 3.8c-4.2 3.7-6.9 10.2-4.3 10.2 1.8 0 3.6-2.1 6.1-7 2.6-5.1 3.4-4.3 4.3 3.9.4 3.7.2 6.4-.9 8.9-1.4 3.3-1.3 8.9.3 14.5.5 2.1 1.9 2.2 2.7.2zM590.5 1136.4c-3.5-7.3-5.3-9.4-7.7-9.4-1.5 0-1.7.3-.8 1.9.5 1.1 1.4 3.1 2 4.5 1.6 4.4-1.3 3.1-4-1.6-1.3-2.4-2.7-4.5-3-4.8-.9-.6-4-6.7-4-7.7 0-.5 2.3-2.6 5-4.6 4.9-3.7 6.5-6.7 3.5-6.7-2.7 0-1.6-2.1 2-3.6 4.7-1.9 5.2-1.8 5.9 1.7.8 4.3 3 3.2 3.4-1.8.2-2.6-.8-6.9-2.8-12.3-3.1-8.6-3.8-13-2-13 .9 0 1.3 1.2 2.4 7.8.8 4.6 6.3 16.9 8.7 19.3 2.1 2.1 2.6 7.4.7 8.5-.6.4-1.9-.2-2.9-1.4-2.4-3-2.9-2.8-2.9 1.4 0 4.8-1.4 7-5.2 8.3-2.6.9-3 1.4-1.8 2.1 2.2 1.4 4.6 1.2 6-.5 1.8-2.1 3.7-1.9 4.3.6 1 3.6 2.5 1.1 2-3.1-.7-5.1 1.1-5.3 3.4-.5.9 1.9 2.2 3.5 2.8 3.5.7 0 2 .9 3 2 1.8 2 1.7 2-7.3 2s-9.2.1-9.2 2.4c0 1.2.5 3.7 1.1 5.4 2 5.8.4 5.5-2.6-.4z" fill="#000" fill-rule="nonzero"/><path d="M564.7 1138.3c-.3-1-1.4-3-2.3-4.5-1.7-2.6-1.7-2.9 1.1-11 2.2-6.3 2.8-10 2.8-15.5-.1-7.3 1.1-9.6 2.3-4.8 1.1 4.4 2.9 2.1 3.2-4.1.6-14.9 2.9-13.2 3.3 2.6l.4 11.5-2.6-.3c-2.4-.3-2.7.1-3.3 3.8-.4 2.5-.2 5.6.6 7.6 1.1 3.1 1 3.5-1.6 5.9-2.5 2.3-2.8 3.1-2.2 6.6.6 3.9-.7 5.5-1.7 2.2zM618.2 1136.4c-.5-1.1-1.2-3.3-1.5-5-.3-1.8-1.8-4.4-3.2-5.9-3.2-3.6-3.2-5.3.2-5.7 1.4-.2 2.8-.9 3.1-1.6.3-1-.6-1.3-3.4-1.1-3.5.3-3.9.2-3.6-1.9.4-2.5-1-2.9-2.8-.7-.7.8-1.6 1.5-2.1 1.5-1.2 0-1.1-3.7.1-4.5.6-.3 1-1.9 1-3.4 0-4.6 2-9.3 3.7-8.6 1.1.4 1.3.1.8-1.2-2.3-5.6-3.5-23.3-1.5-23.3s2.8 3.9 3.5 16.5c.4 8.3 1.2 13.8 2.1 15.2 1.7 2.7 1.8 4.1.2 2.5-.7-.7-1.8-1.2-2.5-1.2-2.2 0-1.4 2 1.2 3.2 2.1.9 2.9.9 4-.3 1.3-1.2 1.3-2.9.4-10.3-1-8.2-.9-9.3.9-13.5 1.1-2.5 2.3-5.4 2.6-6.3 1.1-3.5 2.6-1.7 2.6 3 0 2.6.7 6 1.5 7.6.8 1.6 1.5 5.5 1.5 8.8 0 5.3-.4 6.5-3.1 9.5-2.7 3.1-3 4-2.4 7.5.6 3.5.4 4.3-2.1 6.9-2.1 2.2-2.4 2.9-1.2 2.9 3 0 4.9-1.2 6.4-4.1.8-1.6 2-2.9 2.7-2.9 2.3-.1 5.9-3.9 5.3-5.6-.6-1.5-.8-1.5-3.1 0-1.3.9-2.9 1.6-3.5 1.6-1.9 0-1-3.7 1.6-6.5 1.7-1.8 2.8-4.6 3.4-8.2.5-3 1.4-6 1.9-6.7.7-.8.4-2.1-.9-4.1-2.4-3.7-2.7-11.7-.5-13.5 1.8-1.5 1.7-1.7 2 5 .1 3 .8 6.8 1.4 8.4 1 2.4 1.5 2.8 4 2.3 1.8-.4 3.3-.1 3.9.6 1.4 1.7 2.4 6.6 2.3 10.9-.1 2.7.4 4 1.8 4.7 2.6 1.4 3.7-.2 4-5.9.6-9.7 4.1-10.9 4.1-1.4 0 4.8.3 6.5 1.3 6.2.6-.3 1.3-2.5 1.5-5l.3-4.6 2.6 2.6c1.7 1.7 2.8 2.2 3.1 1.4.6-2-3.1-8.6-5.5-9.7-1.7-.7-2.3-1.8-2.3-4.3 0-2.6.6-3.6 3.3-5.2 4.9-3 7.3-2.6 10.3 1.9 3 4.6 2.6 7.8-1.2 8.7-1.3.3-2.4 1-2.4 1.4 0 2.5 2.3 6.2 4.5 7.2 3 1.3 3.3 2.8.5 2.8-5.2 0-15 5.7-15 8.7 0 1.4-2.6 1.8-3.4.4-.3-.4-2.4-1.1-4.5-1.5-4.4-.7-5.5-2-8.2-9.5-.8-2.5-2-4.6-2.5-4.8-1-.3-.9 11 .1 15.7.9 3.6-7.9 12.7-12.7 13.2-3.1.3-3.3.5-3.6 4.8-.4 5.2-1.6 7-3 4.4zM443.8 1089c.3-12.7.1-18.4-.7-19.4-1-1.1-.5-2 2.3-4.1 4.2-3.2 6-2.7 4.5 1.2-.6 1.5-1.1 10-1.2 18.8-.2 13.5-.5 16.5-2 18.8-.9 1.5-2.1 2.7-2.5 2.7-.4 0-.6-8.1-.4-18zM436.2 1103.4c.5-7.4-.2-9.6-3.9-13.2l-3.7-3.5-3.2 3.9c-1.8 2.1-3.5 3.6-3.9 3.3-.3-.3.8-3.2 2.5-6.4 3.3-6.3 3.8-9.6 1.5-11.5-1.2-1-1.6-.8-2.5 1.5-.5 1.4-1 3.5-1 4.6 0 2.5-7.3 17.1-9.4 18.8-2.2 1.8-3.2.6-1.8-2.2.6-1.2 1.8-3.8 2.6-5.7.9-1.9 2.5-4.7 3.7-6.1 1.7-2.2 2-3.2 1.2-5.5-1.5-4.6-3.3-4.1-3.3.8 0 4-1.3 6.8-3.1 6.8-.3 0-.4-2.2-.1-4.8.4-4.5.2-5-4.1-9.6-4.7-4.9-6.7-5.3-6.7-1.1 0 2.4-1.6 4.2-2.8 3.1-.3-.4.6-5.3 2.1-11 2.9-11.3 3.4-15.7 1.6-13.9-1.4 1.4-5.6 11.5-6.4 15.5-.4 1.6-1.3 2.8-2.2 2.8-2.6 0-1.3-11.4 2-17.9 4.5-8.8 1.3-8.4-5.9.8-2.6 3.3-5.4 6.3-6.3 6.5-.9.2-3.1.8-4.9 1.1-3.2.7-3.3.6-2.2-1.5 1.6-3-.1-4.6-5.6-5.3-4.4-.5-7.9-3.1-6.7-5.1.3-.5 1-.1 1.5.8.8 1.4 1.2 1.4 4.5.1 4.4-1.8 4.4-1.8 3.7 0-1.6 3.9 6.8-.7 13-7.3 3.5-3.8 3.1-6.2-.6-3.3-1.4 1.2-4 2.1-5.6 2.1-1.6 0-4.6.7-6.5 1.5-4.1 1.7-7.7 2-7.7.6 0-.5 1-1.3 2.3-1.7 1.2-.4 2.8-1.5 3.5-2.5.7-1.1 1.9-1.9 2.5-1.9.7 0 1.8-.9 2.5-2s2.3-2 3.7-2c1.4 0 2.5-.4 2.5-1 0-1.5-6.4-1.2-9.6.4-2.7 1.4-6.2 1.3-11.4-.4-1.4-.4-4.7-1.4-7.3-2.1-3.1-.7-4.4-1.5-3.6-2 1.7-1-18.5-20.4-26.2-25.1-1.6-1-4.5-3.4-6.6-5.5-2.1-2.1-5-4.4-6.5-5.2-2.5-1.3-9.8-10.7-9.8-12.6 0-.5 1 .1 2.3 1.2 1.2 1.1 3.2 2.6 4.5 3.2 1.9 1 2.2.9 2.2-.8 0-2.3-5.6-9.1-7.4-9.1-2.8 0-8.6-8.1-8.6-12.1 0-1.2-1.6-3.6-3.5-5.5-3.8-3.5-4.5-5-1.9-4 1.5.6 1.6 0 1.1-4.1-.3-2.7-1.9-9.1-3.6-14.4-3.6-11.1-3.5-10.9-1.7-10.9.7 0 2.8 2.9 4.7 6.5 1.8 3.6 3.7 6.5 4.2 6.5 2 0-.4-7.5-3.8-11.8-3.5-4.5-4.1-6.2-2.8-7.5.4-.4.8-6 .9-12.5.1-6.4.7-14.6 1.3-18.2.6-3.6 1.5-22.5 2.1-42 .6-19.5 1.3-35.6 1.5-35.8.7-.7 11 2.2 11.7 3.2.4.6 2.6.9 4.9.7l4.2-.3-.7 14.4c-.4 7.8-1.1 17.2-1.6 20.8-.5 3.6-1.1 9.8-1.3 13.8l-.4 7.4 2.8-.6c1.6-.3 2.9-.1 2.9.4s-1 1-2.2 1.2c-2.2.3-2.3.8-2.6 9.6-.3 9-.3 9.2-2.7 9.2-1.3 0-2.7.5-3.1 1.1-.5.8.6 1 3.5.7l4.1-.4.2 4.6c.1 2.5.1 6-.1 7.9-.1 1.8.5 5.1 1.3 7.2 2 5 2 4.9-.5 4.9-2 0-2.1.1-.5 2.3 3.6 5.1 9.5 16.6 11.6 22.7 2.2 6.2 3.8 10 7.3 16.5.9 1.7 2.8 5.5 4.3 8.5 3.3 6.8 9.5 15.6 25.8 36.2 9.8 12.5 34.8 37.5 42.2 42.3 2.9 1.8 5.8 4.2 6.5 5.2.8 1 3.9 3.1 6.9 4.5 4.8 2.4 5.6 2.5 7 1.3 2.4-2.2 3-1.9 3 1.4 0 2 .8 3.5 2.2 4.5 2.3 1.7 2.3 1.6-.7 8.9-1.5 3.7 2.1 1.5 5-3.1 1.8-2.9 3.9-4.8 5.2-5 2.2-.3 2.2-.3.8 3.3-1.2 2.7-1.3 4-.4 5.6.6 1.2.8 4.3.5 7.3-.3 2.8-.8 10.2-1.2 16.3-.4 7.8-1.1 11.6-2 12.4-1.2 1-1.4.7-1.2-1.7zM354 1013c0-.5-1.2-1-2.7-1-2.8 0-9.7-6.6-15.1-14.5-1.5-2.2-3.2-4.6-3.9-5.3-.6-.6-1.5-2.1-1.8-3.2-.7-2.3-2.1-2.6-2.8-.7-.4.8-1.3.4-2.9-1.3-4.5-4.9-9.8-7.6-9.8-5 0 .6.5.9 1.2.8.6-.2 2 1.3 2.9 3.3 1.2 2.4 3.1 4.1 5.9 5.4 5.1 2.3 10.3 8.1 9.7 10.6-.5 1.9 6.2 8.3 11.2 10.6 3.2 1.4 8.1 1.6 8.1.3zM765.3 999.3c2.6-3.8 4-4.9 6.5-5.1 3.2-.3 4.1-1.5 2.2-2.7-1.8-1.1-1.1-2.3 2.9-5.2 4.5-3.1 8.1-11.2 8.1-17.8 0-3.3.2-3.7 2.1-3.2 2 .5 2.1.3 1.7-4.5-.7-6.9.7-12.4 4.3-17 2.2-2.8 2.9-4.5 2.5-6.2-.3-1.3.3-5.7 1.3-9.7 1.1-4.1 2.2-10 2.6-13.1.8-6.8 3-9.5 4-4.9.3 1.6.2 4.7-.4 6.8-.6 2.1-1.1 6.5-1.1 9.8 0 8-1.9 14.4-6.8 23.8-4.9 9.2-5.5 12.3-1.8 8.8 2.6-2.5 10.9-22.5 12.5-30.1.5-2.5 1.2-7.7 1.6-11.7.7-7 .6-7.3-2-9.7-2.3-2.2-2.6-3.1-2.1-6 .6-3 2.1-4.6 4.6-4.6.4 0 1 1.8 1.3 4.1.5 3.9 1.3 5.7 2.1 4.8.4-.4-1-16.4-1.9-22-.6-3-.3-3.8 1.7-5.1 1.8-1.2 2.8-3.3 3.7-7.4l1.3-5.8-3-2.6c-2.2-1.8-3.5-4.2-4.6-8.7-1.6-5.9-1.3-9.9.5-8.7.5.3.9 2 .9 3.7 0 1.9 1.4 5.3 3.2 8.2 2.8 4.4 3.3 4.7 3.6 2.7.4-2.6-3.4-14.9-5.3-17.2-.7-.8-1.6-4.9-2-9-.3-4.1-.9-8.3-1.1-9.2-.4-1.4.1-1.8 2-1.8 2.4 0 2.6.4 2.6 4.2 0 2.9 1.4 7.2 4.6 14l4.6 9.9-1.3 12.2c-.7 6.7-1.2 14.8-1.1 18.1.2 3.5-.3 6.5-1 7.4-.8.9-1.5 5.7-1.9 11.6-.3 6.7-1.1 11.4-2.4 14.1-1.1 2.4-1.9 6.4-1.9 10-.1 5.2-.8 7.4-5.8 17.4-3.2 6.2-5.8 12-5.8 12.8 0 1.1-5.4 11.7-10.9 21.3-.5.8-2.4 4.1-4.2 7.3-2.1 3.6-4.2 6-5.6 6.3-1.8.5-2.3 1.3-2.3 4 0 2.8-.4 3.5-2.5 3.9-1.4.3-3.7.7-5.1 1-1.9.4-2.4 1-2 2.2.8 1.9-1 3.3-4.2 3.3-2.1 0-2.1-.1 1.1-4.7z" fill="#000" fill-rule="nonzero"/><path d="M787.998 971.069c-2.135 4.08-2.449 5.832-1.452 8.133 1.238 2.966.6 4.324-1.35 3.21-1.817-1.073-2.548.109-3.23 5.002-.625 5.429-6.087 12.41-11.915 15.508-2.913 1.55-3.173 1.914-1.84 3.357 1.381 1.531 1.252 1.713-3.174 3.614-6.421 2.62-10.62 6.44-12.992 11.777-1.439 3.257-2.611 4.673-4.3 5.118-1.289.346-4.892 2.941-7.954 5.702-3.104 2.896-7.797 6.637-10.346 8.446-5.629 3.899-6.98 7.109-2.449 5.832 1.554-.486 4.244-2.03 5.816-3.546 1.573-1.515 5.223-4.022 8.137-5.572 7.063-3.755 11.822-8.438 17.821-17.177 5.823-8.646 8.279-10.63 6.925-5.72-.986 3.469-14.749 20.186-20.708 25.167-1.973 1.615-6.235 4.675-9.58 6.906-5.851 3.904-6.163 3.957-9.503 2.788-3.022-.998-3.958-.84-6.283.962-2.368 1.938-3.076 4.014-1.902 6.221.187.354 2.058.038 4.23-.777 3.678-1.389 5.643-1.528 5.224-.399-.165.541-14.95 6.817-20.317 8.65-2.93.88-3.496 1.52-3.705 3.896-.214 2.153-1.599 4.022-4.797 6.741l-4.51 3.871-3.704-1.428c-2.623-1.098-5.352-1.119-9.842.023-5.96 1.357-9.351 3.5-7.447 4.526.5.3 2.189-.145 3.69-.943 1.678-.892 5.337-1.252 8.742-1.024 5.2.406 5.7.707 4.074 1.91-2.107 1.575-14.752 3.994-17.674 3.396-1.035-.242-5.078.888-8.886 2.46-3.76 1.66-7.75 3.102-8.64 3.347-1.423.305-1.542.934-.65 2.611 1.127 2.12 1.574 2.108 4.93.324 2.56-1.361 7.014-2.144 14.52-2.51l10.9-.587 10.162-6.875c5.588-3.764 12.505-8.008 15.465-9.469 3.185-1.467 5.599-3.316 6.065-4.357.419-1.129 4.328-4 9.35-7.124 5.775-3.41 9.55-6.323 11.323-8.738 1.602-2.098 4.759-4.682 7.937-6.372 4.545-2.53 6.158-4.18 12.64-13.29 3.973-5.737 7.873-10.755 8.58-11.13.97-.517 7.795-10.261 13.689-19.625.472-.817 2.493-4.043 4.474-7.135 2.192-3.544 3.326-6.525 2.933-7.902-.403-1.824.068-2.641 2.452-3.909 2.472-1.314 2.903-1.996 2.27-4.038-.392-1.377-1.119-3.596-1.511-4.973-.54-1.865-.244-2.588 1.003-2.798 2.053-.186 2.444-2.433.942-5.258-.986-1.854-1.074-1.807-3.633 3.178zM798.6 981.1c.5-2.3.3-3.6-.7-4.1-1-.7-.6-2.8 2.5-10.7 2.1-5.4 4.6-11.6 5.6-13.8 1.1-2.2 2.9-6.6 4-9.7 1.9-5.1 3.6-7.7 4.4-6.7.2.2-.3 3.5-1.1 7.4-1.4 6.6-2.4 9.3-8 21.2-1.3 2.9-2.7 7.8-3 10.8-.4 3.5-1.2 6-2.4 7.1-1.8 1.7-1.9 1.6-1.3-1.5zM694 821.3c-23.4-.9-53.4-3.6-65.3-5.9-7.3-1.4-17.2-2.9-22.2-3.4-9.2-.9-21-2.6-36.9-5.4-15.9-2.8-59.9-1.6-109.5 3-20.4 1.8-32.6 2.4-53.8 2.4-29 0-40.6-.9-56.8-4.2-5.5-1.1-18.3-3.5-28.5-5.3-10.2-1.8-25-4.7-33-6.5-8-1.7-15.6-3.4-16.9-3.6l-2.4-.5.6-12.5c.4-9.7.9-12.8 2.2-14.1 1.1-1.1 1.5-2.6 1.1-4.4-.3-1.8 0-2.9.9-3.2.7-.3 3.3-3.2 5.6-6.4 2.4-3.2 5-6.3 5.8-6.9.9-.7 1.8-3.9 2.2-8.4.7-6.4 2-9.6 10-25.9 5-10.2 9.5-19.3 10-20.1.5-.8 1.6-2.9 2.4-4.7 2.5-5.4 11.4-14.7 17.3-18C336 662 351 658.1 373 655c10.5-1.5 33.3-1.3 47.5.4 6.6.8 16.5 2 22 2.6 21.3 2.3 23.7 2.9 33 7.6 18.2 9.2 30.4 25.1 40 51.6 2.2 6.2 9.8 34.9 12 45.4.3 1.7 1.6 4.1 2.8 5.2 4.5 4.2 18.2 5.5 24.5 2.3 3.9-2 9.2-7.6 9.2-9.8 0-.7.6-2.7 1.4-4.5.8-1.8 3.3-9.1 5.7-16.3 4.8-14.9 12.7-31.1 20.6-42.7 5.4-7.9 14.9-18.8 16.4-18.8.4 0 3.4-1.8 6.6-4 8.4-5.7 17.9-8 38.8-9 9.4-.5 21.5-1.4 27-2 23.3-2.7 69.8 5.3 92.2 15.7 13.5 6.2 24 25.9 31.3 58.5 3.2 14.1 6.1 22.4 8.8 25.4.9 1.1 2.9 3.8 4.4 6.1 1.5 2.3 4.3 5.7 6.1 7.6 3.4 3.3 3.4 3.5 4.1 14.8.8 11.5 0 16.6-2.6 17.3-6.6 1.8-17 3.7-24.8 4.6-5.2.6-18.7 2.4-30 4-20.7 3-49 5.2-61.7 4.8-3.7-.1-10.2-.3-14.3-.5zm49.7-11.9c5.8-.8 14.8-2.6 20.1-4 5.3-1.4 11.3-2.9 13.2-3.3 7.3-1.6 14.7-7.6 17.2-14 .5-1.4 1-12 1.1-24.1.1-28.1-1.5-35.5-12.1-56.9-10.3-20.5-15-23.1-58.7-31.6-7.7-1.5-18.9-3-25-3.2-20.5-.9-52 2.6-67 7.4-10.9 3.4-20.8 11.8-29.3 24.7-5 7.4-7.5 12.8-13.7 29.6-5.2 14.2-5.7 16.4-6.2 26-.8 15 .8 20 8.6 27.3 5.6 5.1 10.5 7.5 11.7 5.6.3-.5 0-.9-.6-.9-1.3 0-6-4.9-6-6.1 0-1.5 2.1-1 4.7 1.1 1.4 1.1 4.3 2.5 6.3 3 2.1.6 5.5 1.7 7.6 2.6 3.8 1.6 3.8 1.6 1.5 2.9-2.2 1.1-1.9 1.3 4.8 3 7.8 1.9 10.4 1.5 4.9-.8-3.2-1.3-11.8-10-11.8-11.9 0-.4 2.5 1.2 5.5 3.7 3.1 2.5 6.2 4.5 7 4.5 2.5 0 4.5-1.2 4.5-2.7 0-1 .9-1.3 2.8-1.1 2.8.3 3.1 1.3 1.8 5.6-1.3 4 3.7 5.1 27.6 6.2 11.7.5 26 1.6 31.7 2.4 12.1 1.7 14.9 1.1 15.7-3.4.8-3.5 2.8-3.8 6.4-1l2.5 2h-2.2c-3.1 0-2.9 1.8.2 3.2 2 .9 2.3 1.3 1.2 2-1.7.9-43.7-1.6-61.1-3.7-11.2-1.4-13.8-1.3-12.4.1 1.2 1.1 20.9 4.6 33.3 5.9 18.9 1.9 51.4 1.8 64.2-.1zm-321.8-9.5c9-1.4 9.9-1.8 8.1-2.9-1.5-.9-1.4-1 4-2.6.8-.3 4.6-.9 8.5-1.4 3.8-.5 10.6-1.4 14.9-2 7.4-.9 28.4-6.7 33.3-9.2 1.2-.6 3.9-3.5 6-6.4 2.1-2.9 4.2-5.4 4.7-5.4 1.3 0-.2 6.2-2.3 9-2.2 3-10.8 8.3-17.1 10.7-5.4 2-7.9 3.9-3.5 2.7 1.7-.4 4.6-.9 6.6-1 5.7-.2 15.1-8.3 18.5-15.9 4.9-10.9 4.5-29.5-1.2-49.5-3.7-13-15.4-35.5-21.7-42-8-8.1-19-12.1-47.7-17.5-27.5-5.1-44.3-5.5-61.2-1.5-4.6 1.1-13 2.6-18.6 3.5-18.2 2.7-33.6 12.6-38.8 25.1-.9 2.1-4.1 11.1-7.1 19.9-5.4 16.1-5.6 16.8-7.9 42.5-.7 7.4 1.5 19.3 4.2 23.5 1.7 2.7 9 6.8 18.6 10.6 6.8 2.6 31.4 7.5 45.3 8.8 6.1.6 12.4 1.3 14 1.5 7.3.8 34.4.5 40.4-.5z" fill="#000" fill-rule="nonzero"/><path d="M777.5 797.1c-.3-.6-.1-4.6.4-8.8 1.3-9.4 4.7-40.8 6-55 .5-5.6 1.3-10.7 1.6-11.4 1.2-1.9 2.5 1.2 2.4 5.6-.1 2.2.4 7.3 1.1 11.3 1 6 .9 9-.5 18-2.9 18.7-2.9 19-1 23.2 2.4 5.4.7 14.3-2 10-1.2-1.9-2.4-1-2.7 2.1-.3 3.4-4.1 6.9-5.3 5z" fill="#000" fill-rule="nonzero"/><ellipse fill="#FFF" cx="671.5" cy="739.5" rx="19.5" ry="17.5"/><path d="M654.5 764.1c-13.8-.6-14.2-.7-19.3-3.9-6.8-4.4-11.2-9.5-11.2-13 0-2.7.1-2.6 4.4 1.8 2.4 2.5 5.5 5.4 6.9 6.3 2.8 1.8 28.5 7.9 29.9 7.1 2.3-1.4.3-3.8-5.5-6.4-7.4-3.3-9.8-6.4-10.5-13.2-1-10.3 6.6-21.8 14.5-21.8 2 0 6.2-.5 9.2-1.1 5.1-1.1 6-1 9.6.9 5.9 3.2 8.3 5.5 10.5 10.4 2.4 5.2 2.5 10.8.5 17.4-.8 2.7-1.5 5-1.5 5.2-.1 2 17.2-10.6 19.6-14.3 1.1-1.8 1.3-2.9.5-4.3-1.5-2.9-7.7-8-11.5-9.6-3.6-1.5-5.6-3.6-3.3-3.6 2 0 13.3 5.8 14.8 7.6.7.8 2.6 2.2 4.2 3.1 2.8 1.4 3.2 1.3 5.8-.6 3.3-2.5 5-1 2.3 2-1.7 1.9-1.7 2.2-.2 4.9.8 1.5 1.3 3.2.9 3.7-1 1.6-6.8 4.3-9.1 4.3-3 0-2.4-1.7 1-2.9 3.7-1.2 3.9-3.1.4-3.1-3.2 0-6.5 3.6-7.9 8.6-1 3.7-1.3 3.9-6.1 4.5-2.8.4-6.1 1.2-7.5 2-1.4.7-7.1 1.5-14.2 1.7-9.1.4-12 .8-12.4 1.9-1.2 3.1 1.2 3.4 17.8 2.3 9-.6 18.8-1.5 21.8-2.1 7.2-1.2 17.5-6.2 23.3-11.3 11.8-10.4 16.6-12.9 13.1-6.8-1.8 3-8.6 8.7-17.1 14.4-9.3 6.1-16.7 7.6-39.7 8-11 .3-26.3.2-34-.1zm29.5-11.6c3.6-1.9 7-7.4 7-11.5 0-3.7-5.9-14.1-9.3-16.5-1.2-.8-3.6-1.5-5.3-1.5-2.7 0-3.4.5-4.3 3.1-1.1 3.2-3.1 3.1-3.1-.2 0-2.9-2.8-3.5-6.6-1.4-3.8 2-8.5 10.5-8.6 15.6-.2 4.6 3 10.4 6.5 12.2 4.3 2.1 19.7 2.3 23.7.2z" fill="#000" fill-rule="nonzero"/><path d="M667.3 751c-2.7-1.1-3.5-4-3.1-10.6l.3-4.9 4.5-.6c6.6-.9 7.9-.2 9.1 4.7.6 2.3 2 5 3 6 2.7 2.4 2.4 3.2-1.7 4.9-4 1.7-8.7 1.8-12.1.5zM647 755.5c-4.7-2-6.1-3.2-9.7-8.8-4.2-6.6-5.6-7.5-14-9.2-3.6-.7-3.8-.4-2.3 2.5 2 3.8-.8 2.8-4.6-1.7-7.2-8.6-7.8-10.5-3.6-12.7 2.5-1.3 18.1-4.1 18.8-3.3 1.2 1.2-2.3 2.8-8 3.6-7.9 1.1-9.4 2.1-7.1 4.5 1.9 1.8 4.8 2.1 7.6.6 2-1.1 2.4-.4 1 2-1.4 2.1-.3 3.2 2 2 2.1-1.2 2.6-4.6.7-5.3-1-.3-.9-.9.3-2.2 1.5-1.6 1.7-1.5 2.6 1.2 1.3 3.4 10.7 15.2 20.6 25.5 4.3 4.6 3.9 4.7-4.3 1.3z" fill="#000" fill-rule="nonzero"/><ellipse fill="#FFF" cx="422.5" cy="736.5" rx="19.5" ry="17.5"/><path d="M399 797.5c-.8-.2-9.6-.9-19.5-1.6-9.9-.6-18.7-1.5-19.5-2-1.4-.7 3.5-3.4 11.5-6.3 1.5-.6 1.7-.9.6-1.6-1.5-.9-2.4-.7-8.7 2.1-2.3 1-8.3 2.3-13.4 3-9.8 1.3-10.9.9-11-3.3 0-2.3 1.6-2.3 2.9-.1.8 1.5 1.1 1.5 2.7.3.9-.8 3.1-1.9 4.8-2.5 2.1-.7 3.2-1.8 3.4-3.2.4-2.6-1-3-2.8-.8-1.5 1.8-12 2.1-13.8.3-.8-.8-1.3-.2-1.8 2.9-.9 5.7-1.8 7-3.8 5.4-1.1-.9-1.6-3.1-1.6-7 0-6.1 1.3-8.7 4.5-9.3 1.8-.3 2-1.2 2.3-7.8.5-12.7-2-17-3.2-5.5-1 10.3-1.5 10.9-11.2 15.4-4.8 2.3-9.3 4.1-10.1 4.1-1.7 0-3.7-4.5-5.8-13.5-1.4-6.2-1.4-7 0-9.2 1.3-2 2.3-2.4 5.3-2.1 3.2.3 3.8.7 4.8 3.8.9 2.9 1.7 3.6 4.2 3.8 6.9.7 8.8-3.1 5.7-11.7-1.4-4.1-5.4-24.4-5.6-29.1-.1-1.4.2-3.4.6-4.4.7-1.7.5-1.8-2.1-1.2-5.8 1.5-7 2.9-8.3 10.8-1.5 8.5-2.1 11.1-2.7 10.5-.6-.5 4.4-25.6 5.6-28.6.9-2 1.5-2.2 4.8-1.6l3.7.7-2.8-3-2.9-3 3.8-6.9c4.2-7.7 10.9-15.3 13.6-15.3 1.9 0 9.8 6.6 9.8 8.2 0 1.4-4.8.1-8.1-2.3-1.5-1-3.1-1.9-3.6-1.9-1.6 0-5.3 7.6-5.9 12.1-1 7.9 6.9 52.9 9.3 52.9.7 0 1.3-.7 1.3-1.5s.7-1.5 1.5-1.5c1.9 0 1.9.1-.6-5.7-2.5-5.9-6.9-30.5-6.9-39 0-9.7 2-9.2 4.9 1.2.8 2.9 1.9 4.4 4.2 5.5 3.3 1.6 3.7 3.7.7 3.3-1.4-.2-1.6.3-1.2 2.6.4 1.6.1 3.2-.5 3.5-1.4.9-1.4 4.8.1 8.1 1 2.2 1.6 2.4 4.3 1.9 2.7-.5 3.3-.2 3.8 1.5.7 2.8 2.9 2.6 6.6-.5 1.7-1.4 4.6-2.8 6.6-3.1 2-.3 4-1.4 4.6-2.4.8-1.7.6-1.9-2.1-1.9-3.2 0-3.8-.8-1.8-2.8 1.7-1.7 4.8-1.5 4.8.3 0 2.5 8.6-4 11.6-8.7 3.1-4.9 4.3-4.1 5.1 3.4.4 3.9.1 6.3-1.1 8.6-2 4-2.1 9.2-.1 9.2.8 0 2-1 2.6-2.2 1.5-2.8 6.5-7.8 7.9-7.8 1.5 0 1.2 2.1-.6 4.1-1.7 1.9-2.4 12.5-.9 14.8 1 1.7 11.5 8.4 12.2 7.8.3-.3 0-2.2-.7-4.2-3-9.1.9-19.8 9.2-25.3 3.5-2.3 4.5-2.4 13.3-2 10.5.4 12.3 1.3 17.9 8.2 2.9 3.6 3.1 4.3 3.1 12.2 0 6.8.3 8.4 1.5 8.4.8 0 4.5-3 8.2-6.5 6.5-6.2 6.7-6.6 5.6-9.5-1.1-3.4-3.4-5-7.1-5-1.4 0-3.5-.9-4.8-2.1l-2.4-2 3.5.6c8.6 1.6 11.4 1.7 15 .5 5.8-1.9 14.7-.3 17.3 3.2 1.9 2.6 1.9 5.5-.2 8.7-.5.7-3 1.6-5.7 1.9-2.7.2-6 1.3-7.3 2.3-1.3 1.1-3.3 1.9-4.3 1.9-1.1 0-3.7 1.4-5.8 3-2.1 1.7-4 3-4.3 3-.4 0-2.3 1.1-4.3 2.5s-4.7 2.5-6 2.5c-1.2 0-5.5 1.5-9.4 3.4-9.8 4.7-16.3 5.4-25.4 2.8-3.9-1.2-9.3-2.6-12-3.3-5.4-1.4-13.4-7-17.2-12-5.5-7.5-7-9.4-8.8-11.3-2.9-2.9-3.1-.5-.5 4.6 1.4 2.6 2.3 6.2 2.3 9.3.1 6.6 2.3 9.5 9.9 13.4 8.3 4.2 17.6 5.4 42.3 5.5l20.1.1 8.6-4.4c5.4-2.7 10.2-6 12.7-8.7 5.4-5.9 7-6.6 11-5.1 2.7 1 3.4 1 3.8-.2.2-.7 1.8-2.8 3.4-4.5l2.9-3.1-.6 3.5c-.7 3.6-3.6 7-6 7-.8 0-2.5-.4-3.9-1-2.3-.8-2.7-.6-4.8 3.1-3.9 7-15.6 13.6-27.3 15.6-16.6 2.7-55.3.5-63.6-3.7-7.2-3.7-12.3-7.8-14.9-12-2.5-4-5-5.3-5-2.5 0 .8.9 3.8 2 6.6 2.8 7 2.4 9.4-1.5 9.5-1.6 0-4.3.4-5.8.9l-2.9.8.7-4.7c.4-2.7.3-5.1-.3-5.9-1-1.2-2.9-10.3-3.4-16.1-.4-4.3-2.6-4.3-4.4 0-1.2 2.8-1.3 4.3-.5 6 .8 1.8.5 3.8-1 8.4-2.2 6.7-1.9 8.6 1.2 6.9 1.9-1 2-.8 1.7 1.8-.2 2.3.1 2.9 2 3.1 2.6.4 3.1 3.7.6 4.6-2.7 1-.4 2.6 3.9 2.6 3.8.1 4 .2 2.3 1.5-1 .7-4.2 1.7-7.2 2.1-6.8.8-9.6 3.4-3.7 3.4 2.2 0 6.5-.5 9.5-1.1 4-.8 6.1-.8 7.4 0 1.8 1 1.8 1-.2 1.1-2.2 0-4.4 1.8-4.4 3.6 0 .8 2.4 1.1 7.9 1 7-.1 8.2.2 10.3 2.2 2.2 2 4 2.3 17.4 3.2 12.7.8 15.1.7 16-.5 1.4-1.9 2.8-1.9 8.6.2 5.6 2 6.7 1.4 10.3-5.6 1.2-2.5 3.1-5.4 4.2-6.3 2.1-1.9 10.1-2.6 14.2-1.3 4 1.2.3 2.5-5.4 1.9-6.3-.8-7.2.2-8.6 8.7-1.2 7.6-1.4 7.9-4.6 7.9-2.1 0-2.3.3-1.4 1.4.7.8.8 1.6.4 1.9-1 .6-25.3 1.7-27.3 1.2zm34.8-49.1c4.1-2.6 5.9-5.1 6.6-8.9 1-5-1-11-5-15.5-3-3.3-4.3-4-8.9-4.5-7-.9-10.9.1-15.1 3.7-4.7 4.1-6.4 7.7-6.4 13.4 0 5.9 4.2 13.1 8 13.8 5.5 1 18.1-.2 20.8-2z" fill="#000" fill-rule="nonzero"/><path d="M418.5 745.8c-4.1-2.3-4.6-6.2-1.4-11.4 1.8-2.9 2.6-3.4 5.9-3.4 3 0 4.3.6 5.9 2.6 1.2 1.5 2.1 3.3 2.1 4 0 .8.6 2.4 1.3 3.5 1 1.8.9 2.3-1.2 4-2.6 2.1-9.4 2.5-12.6.7zM479 758.3c0-.8 1.1-2.4 2.4-3.6 2.9-2.7 10.6-14.5 10.6-16.3 0-.7 1.1-2.4 2.5-3.6l2.5-2.4-2.6-8.7c-2.5-8.4-2.6-11.3-.3-9 .5.5 1.6 3.2 2.4 5.9.7 2.7 2.7 9.7 4.4 15.7 3.8 13.2 3.9 15.2.7 11.5-2.4-2.7-2.4-2.7-3-.5-.3 1.2-.6 3.6-.6 5.3 0 1.7-.7 3.7-1.5 4.4-1.2 1-1.8.6-3.6-2.4-2-3.4-3.9-4.7-3.9-2.7 0 .5-1.1 2.3-2.5 3.9-2.7 3.3-7.5 4.9-7.5 2.5zM461.5 714.3c-1.1-.3-6.2-1.8-11.3-3.5-7.7-2.4-9.9-2.8-12.3-1.9-2.8 1-3 .9-2.7-1.2.3-1.9-.1-2.2-2.7-2-1.6.2-7.7.4-13.5.6-5.8.1-10.9.5-11.5.8-1.6.9-10.7-2.1-10.2-3.4.3-.9 5.4-1.1 19.3-.9 15.1.3 20.4.7 26.4 2.4 10.3 2.8 21.3 7.1 21.8 8.6.4 1.2 0 1.3-3.3.5zM479.3 708.2c-3.2-1.2-4.2-2.1-4-3.6.3-2.6-7.1-6.3-15-7.6-3.1-.5-5.8-1.2-6.2-1.6-.6-.7 6.2.1 10.7 1.3 1.6.4 2.2.1 2.2-1 0-1.6-7.6-4.9-15.9-6.9-9.7-2.3-17.9-4.7-26.1-7.7-5.1-1.9-10.7-3.1-14-3.2l-5.5-.2 4-.8c2.2-.4 5.4-1.1 7.1-1.5 2-.3 4.2 0 6 .9 5.5 2.8 22.9 8.5 31.4 10.2 7.2 1.5 9.6 2.6 16.2 7.2 6.9 4.9 15.8 13.6 15.8 15.6 0 1.1-2 .8-6.7-1.1zM260 773.3c-2.3-3.4-2.5-4.5-2.4-14.2.2-12.7 1.6-18.7 9.1-37.6 3.1-7.7 7.5-19.5 9.8-26.1 2.3-6.7 4.5-12.6 4.9-13.3 1-1.6 2.6-1.4 2.6.4 0 1.3-13.4 40.9-20.6 60.5-2.7 7.6-2.9 10.8-1 17.1 1.8 5.7 2.4 16.1 1.1 16.5-.5.2-2.1-1.3-3.5-3.3zM843.58 783.3c2.3-3.4 2.5-4.5 2.4-14.2-.2-12.7-1.6-18.7-9.1-37.6-3.1-7.7-7.5-19.5-9.8-26.1-2.3-6.7-4.5-12.6-4.9-13.3-1-1.6-2.6-1.4-2.6.4 0 1.3 13.4 40.9 20.6 60.5 2.7 7.6 2.9 10.8 1 17.1-1.8 5.7-2.4 16.1-1.1 16.5.5.2 2.1-1.3 3.5-3.3z" fill="#000" fill-rule="nonzero"/><path d="M823 756.5c-1-1.2-1.7-5-2-11.9l-.6-10.1-1.6 3.4c-1.4 3-1.6 3.2-2.2 1.4-.4-1.2.3-4.2 1.8-7.4 1.3-3 2.7-8.4 3-12.2.7-7.3 2.2-12.4 3.4-11.3 1.4 1.5 1.9 37.2.5 45-.7 4.5-.9 4.8-2.3 3.1zM812 721.8c-.7-4-1.2-9-1.2-11 .1-2.1.1-5 0-6.5v-24.5c.2-27.3 2.6-41.7 6.8-40.1 1.4.5 1.5 1.7.9 8.2-.4 4.2-1.3 8.3-2.1 9.2-1 1.1-1.4 4.3-1.4 11.2 0 9 .1 9.7 2 9.7 1.6 0 2 .7 2 3.3.1 1.7.7 4.3 1.5 5.7 2 3.5 1.8 7-.6 12.4-1.5 3.5-2.2 7.7-2.6 15.9-.5 10.2-1.3 13.7-3.2 13.7-.4 0-1.3-3.3-2.1-7.2z" fill="#000" fill-rule="nonzero"/><path d="M804.431 557.925c-.4-3.5-1.8-10.8-3.1-16.3s-2.9-12.9-3.5-16.4c-3.2-18-10.9-37.4-29-73.6-9.6-18.9-17.2-31.1-17.8-28.2-.3 1.6 1.4 4.9 12.5 24.2 6.6 11.4 13.1 25 16.3 34.5 1.8 5.2 4.3 11.1 5.7 13 3.9 5.8 10.3 30.4 8.4 32.3-.6.6-1.4-.7-2.1-3.4-1.2-4.6-2.6-6.9-4.1-6.9-1.5 0 .1 4.9 4.6 14.5 2.4 5 5.7 13.7 7.5 19.5 4 13.6 3.8 13 4.6 13 .4 0 .3-2.8 0-6.2z" stroke="#000" fill="#000"/><path d="M284.6 708c.3-2.5 1.7-10.8 3.1-18.5 2.4-13.4 2.5-18.2.7-25.8-.5-2.3-.3-2.9 1.3-3.3 1.6-.5 2-1.5 2.2-5.7.1-2.9 1.2-11.3 2.5-18.7 1.4-7.4 2.7-16.6 3-20.5.4-5.8 2.9-20.7 5.2-31.2.2-1.3 1.7-2.9 3.3-3.8 1.6-.8 3.2-2.3 3.4-3.2.3-1 .5 1.4.5 5.2.2 16.1.9 23.5 2.6 25.3 2 2.3 2 4.6 0 7.8-1.1 1.6-1.5 3.7-1.1 6.2.8 6.1 6.4 19.3 12.2 29.2 3 5.1 5.5 9.4 5.5 9.6 0 .2-.9-.1-2-.8-3.3-2.1-10.9-14-15.1-23.8-4.6-10.7-5.8-15.4-4.8-19.7.4-2.2.2-3.6-.6-4.3-1.9-1.5-2.4-.3-3.1 7.8-.5 5.3-.3 8 .9 10.9 1.4 3.6 1.4 4-.5 6.3-1.6 1.9-1.9 3.6-1.6 8.5.3 5.6.2 6-1.9 5.8-2.3-.3-2.3.3.7 8.5.7 1.8.9 4.8.6 7-.4 2-.8 5.7-.9 8.2-.1 3-1 5.5-2.4 7.4-1.3 1.6-2.3 3.6-2.3 4.6 0 .9-2.7 7.1-6 13.6-5.5 10.8-6 11.5-5.4 7.4zM462.2 620.4c-1.5-1.1-2.2-2.5-2.2-5 0-2.1-.6-3.7-1.5-4-2.4-1-2.9-6.8-1-12.5 1.7-5 5.1-9.1 13.5-16.2 3.8-3.2 4.4-3 3.5 1.3-.7 3.2-5 8-7.3 8-2 0-6.2 9.9-6.2 14.6 0 2.2.8 6.6 1.9 9.7 1 3.2 1.8 5.7 1.7 5.7-.1 0-1.2-.7-2.4-1.6z" fill="#000" fill-rule="nonzero"/><path d="M609.5 593.8c-14.9-5.1-26.4-12-37.5-22.8-9.2-8.9-15.2-12.4-19.8-11.5-7.6 1.4-19 5.7-24.1 9.2-3.1 2.1-6.8 4.4-8.3 5.3-1.6.8-5.2 3.1-8 5.1-18.5 12.7-26.7 16.4-34.3 15.5-2.7-.3-6-.6-7.3-.6-1.3 0-2-.5-1.7-1 .3-.6 2.1-1 4-1 8.1 0 19.9-5.5 31-14.5 6.1-4.9 4.6-4.1 35-19.9 5-2.5 15.9-2.7 22.4-.2 6.1 2.3 15.1 10.1 14.8 12.9-.1 1.4.4 2.3 1.6 2.5 1 .2 5.2 2.4 9.3 4.8 4.1 2.4 7.8 4.4 8.2 4.4.4 0 3 1.5 5.7 3.3 6.5 4.3 10.6 5.7 17.1 5.7 6 0 6.9 1.2 2.4 3.5-3.5 1.8-3.1 1.8-10.5-.7zM479.3 581.3c-2.1-.8 5.7-9.2 8.6-9.3 2.5 0 9.4-6.7 8.5-8.2-.3-.4-2.8-.8-5.5-.8-6.2 0-6.2-1.8 0-4l4.3-1.5 2.9 3.5c3.7 4.4 3.8 7.7.2 9.1-1.5.6-3 1.3-3.3 1.7-.3.4-1.8 1.2-3.5 1.7-1.9.7-3.1 1.8-3.3 3.3-.2 1.2-1.6 2.9-3.2 3.7-3 1.6-3.7 1.7-5.7.8z" fill="#000" fill-rule="nonzero"/><path d="M479.1 562c-1.7-4.4-3.6-11.3-4.2-15.5-1.2-8.1-3-10.4-9.2-11.9-3.7-.9-6.7-4.1-6.7-7.2 0-2.2.4-2.5 2.7-2.2 2.2.2 2.9 1 3.4 3.6.8 3.7 3.3 6.1 6.7 6.2 3 0 3.4 1-4.2-12-1.4-2.5-2.6-5.1-2.6-5.7 0-2.6 2.6-1.2 5 2.7 1.3 2.2 3.6 4.8 5.1 5.9 1.5 1.1 3 3.2 3.4 4.8.6 2.4 10.3 12.8 11.2 11.9.2-.1-1-4.7-2.7-10.2-2.8-9.5-5-22.4-3.7-22.4 1.6 0 5.7 10.4 6.1 15.2.2 2.9 1.1 6.9 2 9 3.8 9 4.4 19.8 1 19.8-1.2 0-1.5-.9-1.2-3.7.3-3.5.1-3.8-2.4-4.1-2.9-.3-5.8-2.8-9.9-8.2-1.5-1.9-3-3.2-3.3-2.9-.4.3.5 3.9 1.8 7.9 1.8 5.2 2.2 7.8 1.5 8.6-.7.9.1 2.9 3 6.9 3.5 5.1 3.8 6.1 2.9 8.6-.5 1.6-1.4 2.9-1.8 2.9-.5 0-2.2-3.6-3.9-8z" fill="#000" fill-rule="nonzero"/><path d="M469.3 563.2c-1.8-2-4.2-6.4-5.3-9.8-1.2-3.6-4.3-9.2-7.2-13.1-8.7-11.5-10.5-15.3-7.4-15.3.8 0 2.8 2.1 4.5 4.7 1.8 2.7 5.1 5.8 7.8 7.4 7.2 4.2 10.3 9.5 7.2 12.6-.7.7.1 3.3 2.5 8.5 2 4.1 3.6 7.8 3.6 8.1 0 1.7-2.8.2-5.7-3.1zM401.8 557.8c-7.8-9.3-11-14.8-14.8-25.9l-3.7-10.8 2.3-10.3c1.3-5.7 2.3-11.7 2.4-13.4 0-2 .9-3.8 2.5-5.2 1.7-1.5 2.5-3.2 2.5-5.4 0-4.2 1.3-6.3 3.4-5.5 2.5 1 2 6.6-1 10.9-2.3 3.2-2.6 4.5-2.2 8.8.3 2.7.1 5-.3 5-2.5 0-.2 3.9 5.7 9.7l6.5 6.4-.6 5.2c-.6 4.7-.4 5.5 1.9 8 2.9 3.1 2.6 5.3-.4 3.7-1-.5-2.8-2.2-4-3.7-1.8-2.4-2.1-3.6-1.6-7.8.4-3.8.2-5.7-1-7.3-1.7-2.4-9.3-7.6-10-6.9-.2.2.3 5.3 1.1 11.3 1.8 12.3 4 17.6 11.4 27.4 8.1 10.8 8 15.4-.1 5.8zM713.6 548.3c9.9-9.6 12.6-14.1 12.6-21.4 0-5.9 1.5-8.8 3.9-7.3 1.9 1.1.4 11.4-2.5 17.6-2 4.2-4.4 7-9.4 11.1-10.3 8.3-13.3 8.3-4.6 0zM749.2 553c2.9-1.6 4.1-3.1 5.8-7.7 2.1-5.6 2.2-6.4 1.1-18.8-.7-7.1-1.5-14.1-1.8-15.5-1-4.5 1.6-.8 3.7 5.3 1.5 4.4 2 8.2 2 17 0 10-.3 11.9-2.3 15.8-2.3 4.3-4.5 5.6-9.7 5.8-2.2 0-2.1-.2 1.2-1.9z" fill="#000" fill-rule="nonzero"/><path d="M336 337.5c-13.5 1.3-15.1 1.1-23.6-3.5-4.4-2.3-9-5-10.4-6-1.4-1-4.1-2.5-6-3.4-3.2-1.5-10.2-6-20.8-13.6-5.6-4.1-31.9-15-36.1-15-1 0-8.5-2-16.7-4.4-8.2-2.5-17.7-5-21.1-5.6-3.3-.6-9.2-2.1-13-3.5-10.8-3.8-22.3-8.1-28.8-10.9-3.3-1.3-8.7-2.9-12-3.5-3.3-.5-9.1-1.5-13-2.2-8-1.3-28.5-7.8-34.6-11-5.4-2.7-21.9-6.9-27.4-6.9-3.1 0-6.6-1.2-12.7-4.3-4.5-2.4-11.4-5.1-15.3-5.9-3.8-.9-13.7-3.3-22-5.2-8.2-1.9-16.7-3.8-18.7-4.1l-3.8-.6V0h929.5l1.4 3.1c1.4 3.1 6.8 7.2 8.3 6.3 1.4-.9.9-2.4-.9-3.1-2.6-.9-5.3-3.4-5.3-5 0-1.1 12.5-1.3 73-1.3h73v230l-2.7 1.2c-1.6.7-4.6 2.4-6.8 4-3.6 2.4-30.7 12.8-33.5 12.8-2.7 0-26.7 8.1-30 10.1-8.2 5.1-16.6 7-34.5 8-9.3.5-19.2 1.4-22 1.9-9.7 1.9-41.1 9.2-47.5 11-3.6 1-13.9 3.3-23 5.1-11.5 2.2-19.4 4.4-26 7.1-5.2 2.2-10.8 4.4-12.5 4.9-1.6.5-9.1 4-16.5 7.9-22 11.4-26.3 13.3-39.5 17.2-5.5 1.6-11.4 3.3-13.1 3.7-1.7.5-8.4 3.6-14.8 6.9-15.1 7.9-15.2 6.3-.5-8 10.9-10.7 14.8-16.5 14.9-21.7 0-3.9-12.7-40.6-17.8-51.1-8-16.7-29.9-54.4-34.5-59.3-.7-.6-2.5-3-4.2-5.2-6.3-8.6-14.9-17.3-25.7-26-3.6-3-11.7-10.1-18-15.7-13-11.8-17.8-15.4-26.5-19.6-3.4-1.6-7.4-3.9-9-5-1.5-1.1-4.5-2.7-6.7-3.6-4.3-1.8-11.6-2.2-11.6-.6 0 .6-.9 1-2.1 1-1.1 0-1.8-.4-1.5-.9.7-1-8-2.5-14.9-2.5-2.8 0-6.6.8-8.4 1.7-3.9 1.9-6.1 2.2-6.1.7 0-.5.9-1 2-1 2-1.2-3.3-1.5-9.8-1.4-11.4 0-27.2-2.6-27.2-4.6 0-1.5 5.2-2.1 14-1.4 7.8.6 9 .5 9.6-1 .5-1.2 1.9-1.6 6.2-1.6 5.2 0 5.4.1 3.9 1.8-1.5 1.6-.9 1.7 10.4 1.3 7.6-.2 12.4.1 13.2.8 3-.6 5-.4 8.3.6 5.6 1.7 8.3 1.9 6.8.6-.5-.5-6.3-1.8-12.9-2.9-24.7-4.3-26.9-4.5-43.4-3.2-13.5 1.1-17.9 1.9-32.6 6.1-15.3 4.4-24 7.8-43 17-7.6 3.7-16.8 8.7-22.3 12.3-2.4 1.5-5.3 3.1-6.6 3.6-1.3.5-7 4.6-12.6 9.2s-11.2 9-12.3 9.8c-9 6.1-48.7 45-55.7 54.6-8.3 11.1-28.3 46.8-30.5 54.4-.4 1.4-1.3 3.9-2 5.5-.7 1.7-2 5.5-3 8.5-.9 3-2.9 8.2-4.5 11.5-6.1 12.6-7.7 25.3-3.9 30.6 1.467 2.133 1.433 5.6-.1 10.4z" fill="#000"/><path d="M358 551.7c-1.4-.6-3.5-3.2-4.8-5.7-2.3-4.3-2.3-5.1-1.8-21.5.5-19.2 2.4-28.6 7.9-39.5 2.9-5.9 3.2-7.1 3-14.7-.1-4.6.2-8.3.7-8.3.5 0 1.9 1.4 3.2 3 1.2 1.7 2.5 3 2.9 3 .4 0 1-2.9 1.4-6.4.5-4.9.3-7-.9-9.5-.9-1.7-2-3.1-2.5-3.1-2 0-1.7-7.1.6-16 2.6-10.2 3.8-12.4 5.3-10 1.6 2.5 1.1 6.6-1 9.3-2.5 3.1-2.7 13-.5 18.3 2.2 5.4 3.7 3.3 2.9-4.2-.4-3.5-.5-6.4-.2-6.4s1.8 2 3.4 4.5c2.3 3.8 3 4.3 3.5 2.8.4-1 .5-4.3.2-7.4-.6-5.9.7-9.9 3.2-9.9 1 0 1.5 1 1.5 2.9 0 1.7.4 3.2 1 3.6 1.2.7 4-4.6 4-7.6v-2.3l2.1 2.2c1.1 1.2 2.4 2 2.8 1.7.5-.2 3-4.8 5.7-10.1 2.7-5.4 5.8-11.3 6.8-13.3 2.9-5.5 2.5-11.7-1.2-17.5-4-6.3-5-12.6-2.8-17.3 2.2-4.6 3.3-12.3 1.7-12.3-.6 0-1.1.9-1.1 2s-.9 4.3-2 7.2c-1.1 2.9-2.3 7.8-2.6 10.8-.4 3-1.1 6.1-1.7 6.8-1.4 1.7-4.4 1.5-5.6-.5-1.5-2.8-4.1.2-4.1 4.9 0 3.1-.7 4.7-3.5 7.6-3.2 3.4-7.7 9.3-12.2 16.4-2.4 3.6-3 3.5-2.6-.4l.4-3.3-2.5 3.9c-1.3 2.1-2.9 4.2-3.5 4.5-.5.4-1.9 2.7-3 5.3-1 2.5-2.4 4.9-3 5.2-.6.4-1.1 2.7-1.1 5.1 0 3.4-.3 4.3-1.4 3.9-2.9-1.1-2.4-5.4 1.4-12.8 2.1-4.1 4.8-8.8 6.1-10.5 2.1-2.8 2.2-3.5 1.4-12.8-.5-5.4-.8-12.3-.8-15.3.5-19.7.4-23.9-.6-27.5-1.4-5.2-7.6-13.5-14.3-19.3l-5.3-4.5c.133-1.8 1.267-2.7 3.4-2.7 1.1 0 3.6 1.4 5.6 3.1 4.1 3.6 4.7 2.4 1-1.9-1.4-1.7-3.1-4.5-3.7-6.3-.6-1.7-1.9-4-3-5.1-1.4-1.4-1.8-3.2-1.7-8 .2-11.8 2.1-13.8 3.9-4 1.3 6.8 3.3 12.3 4.5 11.9.6-.2 1-6.4 1.1-15.8 0-16.1.4-18.9 3.1-21.1 1.5-1.2 1.6-1 1.1 1.7-.4 1.7 0 4.8.8 7 .7 2.2 1.4 5 1.4 6.3 0 1.3 1.2 4.3 2.6 6.8 1.9 3.2 2.2 4.4 1.2 4.4-1 0-1.3.9-1 3.1.3 2 .9 2.9 1.8 2.5 1.7-.7 1.9 4 .3 8.1-.6 1.5-1.3 4.6-1.5 6.8-.3 2.2-.7 6.1-1 8.6-.4 3.3-.1 5.6 1.1 7.9 2.1 4.1 3.1 3.2 1.5-1.4-1-3.1-.9-3.9 1-6.4 1.2-1.6 4.1-8.7 6.6-15.8 2.5-7.1 5.8-15 7.5-17.5 1.6-2.5 2.9-5.8 2.9-7.4 0-2.3.2-2.5 1.5-1.5.8.6 1.9.9 2.4.6 1.4-.9 2.5 1.4 1.2 2.7-.6.6-1.1 2.2-1.1 3.4 0 2.6-2.6 8.3-3.8 8.3-1.8 0-5.5 7.6-6.9 14.2-2.5 11.7-.3 37.7 2.7 32.8 2.3-3.7.3 4-2.4 9.3-4.6 9-5.7 7.8-7.2-7.8-.6-6.8-2.3-12.5-2.4-8 0 6.6 2.2 20.9 3.6 23 1 1.6 1.4 3.4 1 5-.8 3.1-2.4 3.3-2.8.3-.2-1.3-1-2.3-1.8-2.3-1.2 0-1.5 1.6-1.4 9 .1 5 .8 11.7 1.5 15l1.3 6 .6-5.5c.4-3 2-8.4 3.7-12 1.7-3.6 4-9.4 5.3-13 1.2-3.6 3.4-8.7 4.9-11.5 7.8-14.1 11.7-20.4 14.9-23.9 3.5-3.9 3.5-3.9 2.8-11.2-.5-6.6-.4-7.5 1.3-8.4 2.7-1.4 2.7-1.4 4.1 2 2 4.9 3.6 3.6 4.9-4 1.4-7.7 2.1-8.5 11.7-13.3 5.5-2.8 6.4-2.7 6.4.9 0 1.2 1.3 5.5 3 9.5 1.6 4.1 3 7.5 3 7.7 0 .1.4.2.8.2.7 0 .7-3-.1-19.1-.3-4.8-.1-5.4 1.1-4.3.7.8 1.7 1.4 2.1 1.4 1.2 0 3.8-3.3 4.6-5.8 1-3.3 2.5-2.3 4.2 2.8 1.2 3.5 1.3 5.2.5 7.4-1.2 3-.1 5.6 6.4 16.1 1.7 2.8 2.3 4.9 2 7.2-.5 3.2.2 4.3 6.8 10.2 1.4 1.3 2.9 3.5 3.1 5 1.2 5.9 2.2 7.6 5.4 9.8l3.4 2.3h-2.7c-1.5 0-3.6-.5-4.7-1-2.3-1.3-4.9-6.1-4.9-9.3 0-3-3.6-7.7-5.9-7.7-2.8 0-4.1-2.1-4.1-6.5 0-2.7-.9-5.3-2.7-8-3.5-5.2-7.1-9-7.8-8.4-.3.3 1.2 5.3 3.4 11 2.9 7.9 4.4 10.7 6.4 11.6 4.1 2.1 5.2 4 3.9 6.8-.7 1.4-1.5 2.5-2 2.5-1 0-10.2-16.2-10.2-18.1-.1-1-.5-.8-1.6.6-2.3 2.9-1.3 11.9 2 18.1 3.9 7.3 1.8 8-4.9 1.4-3-3-5.8-6.3-6.1-7.3-1-3.3-2.4.2-2.4 6.1 0 5.4.7 6.1 4 4 1-.7 2.1-1 2.4-.7 1 .9-2.5 9.4-4.5 10.9-1.7 1.4-1.8 2-.8 4.8 1.5 4.4.5 5.2-1.6 1.2-1.3-2.4-1.4-3.8-.6-6 1-2.9.5-7-.9-7-.4 0-1 1.6-1.3 3.4-.3 1.9-1.2 5-2 6.8-.8 1.8-2 5.8-2.7 8.8-2.1 9.2-3.9 14.1-8.5 23.5-2.4 5-6.6 13.7-9.3 19.5-2.7 5.8-7.9 15-11.6 20.4-7.4 10.9-8.9 15.5-6.2 18.5 1.2 1.3 1.4 2.1.6 2.6-.7.4-1.4-.1-1.7-1.3-.2-1.1-1.5-2.4-2.7-3-1.7-.7-2.5-2.2-3-5.1-1.1-7.1-2.6-4.6-2.6 4.4v8.4l-4 1.1c-2.2.6-4.5.8-5 .5-.5-.3-1.2.7-1.5 2.2-.4 1.5-1.8 6.2-3.2 10.3-2.3 6.7-2.5 8.5-1.9 16.7.3 5.1.9 9.9 1.2 10.8.3.8.1 1.5-.5 1.5-1.5 0-3.1-4.3-3.1-8.1 0-3.2-1.4-3.9-2.4-1.2-1.3 3.4-3.7 29.9-3 33.8.3 2.1 1.7 6.8 3 10.2 1.3 3.5 2.4 6.6 2.4 6.8 0 .8-1.4.5-4-.8z" fill="#000"/><path d="M426 351c-.6-1.1-1.9-2.4-2.9-2.9-2.3-1.3-3.8-5.2-4.5-11.7-.4-4.8-.2-5.5 2.9-9.1 4-4.7 5.3-12.5 2.2-13.1-1.2-.3-2.2.7-3.2 3.5-.8 2.1-2.6 5.9-4 8.4-1.4 2.6-2.5 6-2.5 7.7 0 4.3 5.3 15.5 8.5 18 3.1 2.5 5 2 3.5-.8z" fill="#FFF" fill-rule="nonzero"/><path d="M771.6 277.8c-.4-3.5-1.8-10.8-3.1-16.3s-2.9-12.9-3.5-16.4c-3.2-18-10.9-37.4-29-73.6-9.6-18.9-17.2-31.1-17.8-28.2-.3 1.6 1.4 4.9 12.5 24.2 6.6 11.4 13.1 25 16.3 34.5 1.8 5.2 4.3 11.1 5.7 13 3.9 5.8 10.3 30.4 8.4 32.3-.6.6-1.4-.7-2.1-3.4-1.2-4.6-2.6-6.9-4.1-6.9-1.5 0 .1 4.9 4.6 14.5 2.4 5 5.7 13.7 7.5 19.5 4 13.6 3.8 13 4.6 13 .4 0 .3-2.8 0-6.2z" fill="#FFF"/><path d="M693.8 522.5c-.4-.4-.4-1.3-.1-2.1.3-.8 0-1.4-.6-1.4-.7 0-1.4.7-1.7 1.5-.4.8-1.3 1.5-2.1 1.5-1.1 0-1.3-.4-.5-1.2.8-1.1.9-5.8.3-12.2-.1-.4-1.9.8-4.1 2.8-3.9 3.5-5 4-12.5 5.1-3.9.5-3.9.5 2.4-3 8.1-4.4 9.6-5.8 5.4-4.9-2.3.4-4.2-.1-7.4-2-2.4-1.4-5.7-3.3-7.4-4.3-3-1.7-9.5-2.7-25.5-3.9-6.8-.5-10.6-.2-18.6 1.6-10.2 2.2-16.9 2.4-16.9.5 0-2 12.3-3.6 29.2-3.7l17.3-.1-.7-2.5c-.5-2.2-.4-2.3 1.5-1.3 1.2.6 2.4 1.6 2.7 2.1 1 1.6 7.2 1.2 8.9-.6 1.7-1.7 3.6-1.1 3.6 1.1 0 .7 2.7 3.4 6.1 5.9 5.6 4.2 6.6 4.6 11.9 4.6 3.9 0 6.2.5 7 1.5 1.9 2.3 3 1.8 3-1.5 0-2.5.8-3.5 4.8-6 2.6-1.6 5.3-3 6-3 2.5 0 1 2.6-2.9 5-2.7 1.7-4.2 3.4-4.6 5.3-.4 1.8-1.5 3.2-2.9 3.8-3 1.1-3.1 3.7-.2 4.1 1.3.2 2.4 1 2.6 1.9.3 1.8-3 6.4-4 5.4zM323.4 506.7c-.8-1.8-.7-2.6.3-3.5.7-.7 1.3-2.2 1.3-3.3 0-1.2.8-3.3 1.8-4.7 1-1.5 2.3-4.4 2.9-6.5 1.1-3.5 1-3.9-1.1-4.7-3.4-1.3-5-6-2.1-6 .9 0 2.4-2 3.5-4.6 1.1-2.5 3.2-5.6 4.8-6.8 1.5-1.3 4.5-5.3 6.6-9 2.1-3.6 4.5-7.1 5.2-7.7.8-.6 1.4-2.1 1.4-3.2 0-1.8-.2-1.7-2.6.8-1.4 1.5-2.8 2.5-3.1 2.1-.8-.7 4.8-5.2 6-4.8.5.1 1.5-.2 2.3-.9 1.1-.9 1.5-.8 2 .5.7 1.7-1.5 6.9-5.2 12.6-1.3 1.9-2.6 4.8-3 6.3-.3 1.6-1.8 3.4-3.4 4.2-3.6 1.9-4.1 3.3-5 13.9-.7 7.8-1.2 9.4-4.3 14-1.9 2.8-4.1 7-4.8 9.4-1.4 4.8-2 5.1-3.5 1.9zM502 502.3c-1.9-.2-15.2-1.2-29.5-2.3-14.3-1.2-27.5-2.3-29.3-2.7-2.8-.4-3.4-.2-3.9 1.5-.4 1.7-1.1 2-4.1 1.5-2.1-.3-5-1.3-6.7-2.1l-3-1.5 7.5-3.6c10-4.9 10.5-5.2 9.1-6.1-.9-.5-.8-1.8.5-4.8 1.8-4.6 3.9-4.7 2.9-.1-.4 1.6-.2 2.9.3 2.9 1.3 0 2.4-2.7 2.6-6.5.4-4.7 2.8-9 5.4-9.3 1.4-.2 2.9-1.7 4.2-4.2 1.1-2.1 2.4-4.1 3-4.5.5-.3 1-1.8 1-3.3 0-4.2 1.3-5.5 4.7-4.8 1.8.4 4 .1 5.9-.9 1.6-.8 3.9-1.5 5.2-1.5 1.9 0 2.2.5 2.2 4 0 3.6.2 4 2.5 4 2.2 0 2.4-.3 1.5-1.9-.5-1.1-.9-3.4-.7-5.3.2-3.2.5-3.4 7.7-5.8 4.1-1.4 8.7-3.3 10.2-4.4 4.1-2.7 6-1.5 5.7 3.6-.1 2.4.2 5.1.6 6.1.4 1 .5 2.1.1 2.4-1.2 1.2-3.1-1.8-3.2-5-.1-4.6-3.9-5.4-7.6-1.6-1.4 1.5-3.5 3-4.6 3.3-2.6.8-3.8 4-5.7 15.1-.9 5-2.2 10.9-3 13.3-1.6 4.9-1.1 5.2 5 2.6 3.3-1.3 3.9-1.3 6 0 2.7 1.8 14.1 1.5 30-.8 15.1-2.2 35.1-3.9 36.4-3.1.7.4 8.9 1.1 18.4 1.5 14.1.7 19.8 1.5 31.7 4.3 8 1.9 17.8 3.7 21.8 4.1 4.1.3 8.2 1.1 9.3 1.7 4.2 2.2 1.4 2.5-7.8.8-5.4-1-12.1-1.8-15-1.9-2.8 0-12.7-1.1-22-2.4-23-3.3-41.6-4.9-47.6-4.2-2.8.4-8.6 1.6-13.1 2.6-9.5 2.2-28.5 4-42 4-11 0-15.5 1.2-13.6 3.5.8.9 2.1 1.3 3.1 1 1.6-.5 1.9-.1 1.9 2.5v3.2l5.3-.4c2.8-.2 5.9-.6 6.7-.9 1-.2 1.4.2 1.2 1.3-.3 2.2 1.5 3.3 3.3 1.8.9-.8 2-.8 3.1-.2 1.1.6 2.7.6 4 .2 1.6-.7 2.6-.4 3.8.9 1.6 1.7 1.5 1.9-.6 2.5-2.3.6-4.4.6-10.8-.1zM692 358.5c0-.2 2-1.8 4.4-3.5 7.3-5 7.1-10.4-.4-11.6-4.7-.8-5.2-1.9-1.2-2.8 1.5-.4 3.5-.9 4.4-1.2 2.4-.7 5.8 3.1 5.8 6.4 0 1.6.6 3.7 1.4 4.8 1.4 1.9 1.5 1.9 5 0 2.2-1.1 4.2-1.6 5.3-1.1 1.5.6 1.2.9-1.5 1.7-5 1.4-2.8 3 3 2.2 4.1-.6 5-.4 4.6.7-.3 1-2.8 1.5-9.4 1.7-4.9.1-9.8.6-10.9 1.1-2.1 1-10.5 2.2-10.5 1.6zM471.7 341.6c-1.2-3-.8-4.9 2.3-11 2.4-4.7 3-7.2 3-12.2 0-3.5-.4-6.4-.9-6.4s-1.4 2.6-2 5.8c-1.4 7.1-4 12.6-6.3 13-1.5.3-1.8-.4-1.8-3.2 0-2.5.4-3.6 1.5-3.6 1.7 0 2-3.2.5-5.9-.5-1-2.5-3.4-4.5-5.4-2-2-3.5-4.5-3.5-5.8 0-2.8-1.6-5.6-2.6-4.7-.3.4-.9 2.7-1.1 5.1-.4 3.5-.2 4.7 1.3 5.8 1.2.9 1.9 2.7 2 4.9 0 1.9.4 4.3.8 5.3.5.9.4 1.7-.1 1.7-1.6 0-6.3-11.4-7.3-17.5-.5-3.2-1.5-7.3-2.1-9.2-.9-2.9-.8-3.7.6-5.3 1-1.1 2.6-2.2 3.6-2.5 3.2-1 4.3-4.3 2.5-7-1.7-2.6-2.1-6.5-.7-6.5.5 0 1.1-1 1.5-2.2.4-1.6 0-2.8-1.5-4.1-1.2-1-2-1.9-1.8-2.1.2-.2 3.5-2.5 7.3-5 6.4-4.3 7.3-4.6 11.3-4 2.4.3 4.5 1 4.8 1.4.2.3-.1 2.3-.7 4.4-.9 2.7-.9 3.9 0 4.8.8.8 1.4.5 2.1-1.4 1.1-3 2.7-4.3 3.6-2.8 1 1.6 2.3 1.1 1.9-.7-.5-2.1 8.2-11.7 9.7-10.7 1.2.7 0 12.6-1.7 17.8-1.7 4.8-1.8 4.5.6 3.9 2.3-.6 2.5 0 .8 3-.6 1.2-1.4 4.9-1.7 8.1-.6 6-3.1 9.3-3.1 4.1 0-1.4-.5-3.6-1.1-4.7-.6-1.2-1.2-4.5-1.3-7.5-.1-2.9-.5-5.4-1-5.6-.5-.1-1.8 1.6-2.9 3.8-4.9 9.8-6.9 12.8-7.8 11.4-.5-.8-.9-3.6-.9-6.2s-.7-6.2-1.6-7.9c-.9-1.7-1.7-4.9-1.8-7.2-.1-2.3-.6-4.1-1.1-4-1.4.1-8.5 10.9-7.5 11.2.5.2 2-.4 3.3-1.2 2.3-1.6 2.4-1.5 4 2.1 1.3 3.1 3.7 19.8 3.7 25.7 0 .7-1.3 2.7-3 4.4-3.6 3.9-4.2 9.2-1 9.2 1.1 0 2-.6 2-1.2 0-2.9 2.2-8.8 3.2-8.8.6 0 1.6.8 2.3 1.7 1.1 1.5 1.5 1.5 2.9.4 2.3-1.9 3 .6 1.7 5.6-.6 2.1-1.1 6.3-1.1 9.3 0 4.2-.6 6.4-2.5 9.2-1.4 2-2.5 4.6-2.5 5.6 0 1.1-.8 3-1.8 4.2-1.7 2.1-1.9 2.1-2.5.6z" fill="#000" fill-rule="nonzero"/><path d="M494 339.4c0-.8-1.8-4.6-4.1-8.4-5.2-8.7-5.8-13.2-3-20.2 1.1-2.9 2-6.6 1.8-8.3-.1-2.1.2-3 1.3-3 2.2 0 2.4 3.9.5 12-2.3 9.5-1.3 13.1 3.4 12.7 2.2-.1 3.1.2 3.1 1.3 0 .8-.4 1.5-.9 1.5-.4 0-.6 3.2-.3 7 .3 4.8.1 7-.7 7-.6 0-1.1-.7-1.1-1.6zM517.1 324.8c-1.3-3-2.2-7.1-2.2-9.8 0-2.5-1.1-8.4-2.5-13.1l-2.6-8.6 2.2-7.7c1.3-4.2 2.7-7.9 3.1-8.1 1.5-1 2 5.7.9 12.8-1.1 6.8-1.1 7.7 1 12.6l2.3 5.3 1.3-3.2c.8-1.7 1.8-2.9 2.4-2.5 1.6 1 1.2 5-1 10.6-1.3 3.6-1.7 6.5-1.3 9.4.3 2.4.1 5-.4 5.9-.7 1.3-1.3.6-3.2-3.6z" fill="#000" fill-rule="nonzero"/><path d="M497.8 300.8c.2-10.6.8-20.1 1.3-21 .5-.9.6-5.5.3-10.2-.8-9.8.7-17 4-19.1 1.2-.8 5.4-2.1 9.3-3.1 9-2.1 20.5-8.4 27.2-14.7 5.7-5.4 6.6-7.5 2.1-5.2-4.2 2.2-3.8.2.7-3.2 2-1.5 4.7-3.9 6.1-5.1 2.3-2.2 10.1-5.7 10.9-4.9.9.9-1 3.5-3.5 4.8-4.6 2.2-7.2 5.1-7.2 7.9 0 1.7-1.4 3.9-4.2 6.6-4.9 4.6-19.9 13.8-24.1 14.8-3.2.8-6.7 3.9-6.7 6.1 0 2.1 4.5 1 8.6-2.2 1.7-1.2 3.9-2.3 4.8-2.3 1 0 3.8-2.2 6.3-5 5-5.6 6.3-6.1 6.3-2.6 0 2 .4 2.2 2.7 1.8l2.7-.5-1.7 2.6c-.9 1.4-1.7 3.6-1.7 4.7 0 1.2-.5 3-1.1 4.1-.8 1.6-.7 2.5.5 3.8 1.2 1.3 1.6 3.8 1.6 9.5 0 6.8-.3 8-2.4 10.3-2.1 2.2-2.6 4.1-3.2 11.5-.4 5.4-1.2 9.2-2 9.9-2.2 1.8-2.9-1.7-1.6-8.1.7-3.1 1.2-8.1 1.2-11.2 0-3.4.8-7.3 2-9.9 2-4.6 2.7-9.9 1.1-9.9-.5 0-1.1 1.4-1.4 3-.4 1.8-1.3 3-2.2 3-2.2 0-2-7.5.4-11.4 2.3-3.8 3.4-8.3 2.3-9-1.4-.8-6.2 4.7-7.2 8.5-1.3 4.5-1.3 10.5.1 13.1 1.2 2.3.3 8.8-1.2 8.8-.5 0-1.2-.8-1.5-1.7-.3-1-1.1-3-1.8-4.4-.8-1.5-1.1-3.9-.8-5.4.6-3.6-1.9-3-3.2.7-.7 1.9-.4 3.7 1.2 6.9 2.8 5.8 3.6 10.8 2.3 14.2-1.5 4-2.7 3.3-3.5-1.9-.3-2.5-1.8-8.4-3.2-13-3-9.6-4.8-10-5.6-1.4-.6 6-1.5 7.2-3.4 4.5-1-1.3-1.3-3.1-.9-5 1.5-7.1 1.6-10.3.6-10.9-.6-.4-1.1-2.4-1.1-4.4 0-3.3-.1-3.5-1.6-2.1-2.4 2.5-2.6 21.1-.2 26.4 1 2.2 1.8 5.1 1.8 6.4 0 2-.4 2.2-2.4 1.7-2.3-.6-2.4-.4-1.9 2.7.3 1.8-.2 5.3-1 7.8-.9 2.8-1.3 6.3-.9 9.8.4 4.1 0 6.2-1.3 8.8-1 1.8-2.1 3.3-2.5 3.3-.3 0-.4-8.7-.2-19.2zM566.3 309.8c.2-1.3 1.8-5.4 3.5-9.3 5-11.7 5.5-13.8 5.7-20.5.1-5.5.7-7.6 3.8-13.5 2.1-3.8 5.5-9 7.7-11.4l3.9-4.5.7 2.7c.5 2.2.1 3.3-2 5.2-3 2.7-10.6 17.8-10.6 20.9 0 5.1-5.3 23.5-8 27.9-3.2 5-5.6 6.3-4.7 2.5zM542 308.2c0-2.8 4.1-11.6 5.9-12.9 1.7-1.1 2.1-2.5 2.1-7.1 0-3.1.9-8.6 2-12 1.1-3.5 2-8.3 2-10.7 0-3.8.6-4.8 5.6-10 4.6-4.9 5.5-6.4 5.2-8.7-.5-2.9-.1-3.2 2.6-2.2 1.7.7 2.2 3.4.6 3.4-.5 0-1 .9-1 2.1 0 2.3-3 7.9-4.2 7.9-1.3 0-3.5 5.3-4.7 11.2-.7 3.2-2.1 8.2-3.1 11.1-1.2 3.5-1.7 6.7-1.3 9 .5 3.1.1 4-2.5 6.4-1.6 1.5-3.3 4.2-3.6 5.9-.7 3.1-5.6 8.9-5.6 6.6zM600 299c0-.5 1.1-1.9 2.4-3.2 3.6-3.5 4.1-6.3 1.5-8.9-1.2-1.2-2.2-3.4-2.2-4.9 0-4.2 11.1-18.6 12.9-16.7.2.2-1.6 4-4.1 8.3-4.7 8.3-5.2 11.8-1.9 15.5 2.1 2.4 1.7 4.2-1.9 7.7-3.2 3.1-6.7 4.3-6.7 2.2z" fill="#000" fill-rule="nonzero"/><path d="M583 287.4c0-1 1.7-4.2 3.7-7.3 3.4-5.1 6.3-13 6.3-17.2 0-2.6 3.4-4.9 7.2-4.9 4.6 0 6.6-2.2 4.8-5.4-1.6-3-12.6-10.4-17.7-11.8-2.1-.6-9.5-1.1-16.4-1.2-12.1-.1-12.5-.2-9.1-1.5 3-1.2 5.5-1.3 16-.2 13.1 1.3 16.6 2.5 24.8 8.3 5.2 3.7 6.1 5.8 5.9 12.9-.2 5.2-.6 6.1-5 11.2-5.4 6.3-7.5 6.6-4.5.7 2.3-4.4 2.7-10 .7-10-1.6 0-5.7 11.4-5.7 15.8 0 3.3-1.1 4.8-7.3 10-3.2 2.6-3.7 2.7-3.7.6z" fill="#000" fill-rule="nonzero"/><path d="M558 286c0-1.1 6.5-21.6 8.1-25.7 1-2.8 3.9-3 3.9-.4 0 1-.9 4-2.1 6.5-2 4.5-2 8.4 0 7.2 1.9-1.2 4.1-14.1 3.1-17.7-.6-1.9-1-4.6-1-6.1 0-3.5 2.4-2.8 4.6 1.3 1.8 3.6 4.1 3.7 5.6.4.6-1.4 1.7-2.5 2.5-2.5 1.9 0 1.6 3.1-.7 5.5-1 1.1-3.7 5.6-5.8 10-4.1 8.4-5.8 10.3-10.7 12.6-2 1-3.1 2.4-3.6 4.5-.3 1.7-.9 3.6-1.3 4.2-.9 1.5-2.6 1.6-2.6.2zM545.7 269.3c-.5-6.1-.2-8.5 1.1-11.3.9-1.9 1.7-5 1.7-6.9 0-4.6 2.2-5.9 7.4-4.1 4.5 1.4 4.9 2.1 2.6 4-1.3 1-1.5.9-1.5-.9 0-1.2-.6-2.1-1.5-2.1-1.7 0-1.9 1.4-.5 4 .8 1.4.4 2.5-1.5 4.8-1.4 1.7-2.5 4.3-2.5 5.8-.1 4.4-2.5 13.7-3.7 14.1-.6.2-1.2-2.7-1.6-7.4zM482 257.1c0-.5-.9-1.3-2-1.6-1.1-.3-2-1.4-2-2.4 0-2.4 5.6-7.5 8.3-7.6 1.9 0 2.1-.4 1.8-4l-.3-4 2.4 2.3 2.5 2.2 1.5-3.9c1.2-3 3-4.9 7.2-7.6 3.2-2 6.2-4.7 6.8-6.1 1.1-2.4 3.8-3.4 3.8-1.4 0 2.4-5.3 9.2-9 11.5-2.2 1.4-4 2.9-4.1 3.3-.4 4.2-1.5 6.2-4.7 9.2-2.2 1.9-5.1 5.2-6.7 7.3-2.5 3.4-5.5 4.9-5.5 2.8z" fill="#000" fill-rule="nonzero"/></g></svg>